<?xml version="1.0" encoding="UTF-8"?><svg id="Layer_2" xmlns="http://www.w3.org/2000/svg" viewBox="0 0 202.73 53.92"><defs><style>.cls-1{fill:#00a651;}.cls-2{fill:#333;}</style></defs><g id="Layer_1-2"><path class="cls-2" d="m11.65,42.27V11.72h6.39c1.4,0,2.6.21,3.58.64.99.43,1.79,1,2.42,1.72.63.72,1.08,1.54,1.35,2.47.27.93.41,1.9.41,2.9v1.12c0,.83-.06,1.53-.19,2.1-.13.57-.32,1.07-.58,1.5-.49.8-1.23,1.49-2.23,2.06,1.03.49,1.79,1.2,2.27,2.15s.73,2.23.73,3.86v1.72c0,2.69-.65,4.75-1.95,6.18-1.3,1.43-3.38,2.15-6.24,2.15h-5.96Zm4.38-26.43v8.41h1.97c1.46,0,2.44-.36,2.94-1.09.5-.73.75-1.79.75-3.2s-.28-2.4-.84-3.09-1.57-1.03-3.03-1.03h-1.8Zm0,12.27v9.78h1.89c.89,0,1.58-.13,2.08-.39.5-.26.88-.61,1.14-1.07.26-.46.41-1,.47-1.63.06-.63.09-1.32.09-2.06s-.04-1.44-.13-2.02c-.09-.57-.26-1.06-.51-1.46-.29-.4-.67-.69-1.16-.88-.49-.19-1.13-.28-1.93-.28h-1.93Z"/><path class="cls-2" d="m46.24,11.72v23.69c0,1-.18,1.92-.54,2.77-.36.84-.87,1.6-1.52,2.25-.66.66-1.42,1.17-2.27,1.54-.86.37-1.77.56-2.75.56s-1.88-.19-2.72-.56-1.59-.89-2.25-1.54c-.66-.66-1.17-1.41-1.54-2.25-.37-.84-.56-1.77-.56-2.77V11.72h4.38v23.26c0,1.09.26,1.89.77,2.4.51.51,1.16.77,1.93.77s1.42-.26,1.93-.77c.52-.52.77-1.32.77-2.4V11.72h4.38Z"/><path class="cls-2" d="m52.63,42.27V11.72h4.38v30.55h-4.38Z"/><path class="cls-2" d="m63.4,42.27V11.72h4.38v26.17h8.67v4.38h-13.04Z"/><path class="cls-2" d="m81.42,42.27V11.72h6.48c2.52,0,4.43.69,5.73,2.06s1.95,3.32,1.95,5.84v14.29c0,2.86-.69,4.97-2.08,6.33-1.39,1.36-3.38,2.04-5.99,2.04h-6.09Zm4.38-26.43v22.31h2.02c1.23,0,2.1-.31,2.62-.92.52-.61.77-1.58.77-2.9v-14.72c0-1.2-.24-2.13-.73-2.79-.49-.66-1.37-.99-2.66-.99h-2.02Z"/><path class="cls-2" d="m101.85,42.27V11.72h6.57c1.2,0,2.26.16,3.17.47.92.32,1.75.87,2.49,1.67.74.8,1.26,1.74,1.54,2.81.29,1.07.43,2.52.43,4.36,0,1.37-.08,2.53-.24,3.48-.16.94-.49,1.83-1.01,2.66-.6,1-1.4,1.78-2.4,2.34-1,.56-2.32.84-3.95.84h-2.23v11.93h-4.38Zm4.38-26.43v10.38h2.1c.89,0,1.57-.13,2.06-.39s.84-.61,1.07-1.07c.23-.43.36-.96.41-1.59.04-.63.06-1.33.06-2.1,0-.71-.01-1.39-.04-2.04s-.16-1.21-.39-1.69c-.23-.49-.57-.86-1.03-1.12-.46-.26-1.12-.39-1.97-.39h-2.27Z"/><path class="cls-2" d="m121.46,42.27V11.72h4.38v26.17h8.67v4.38h-13.04Z"/><path class="cls-2" d="m137.5,42.27l6.82-30.55h3.65l6.82,30.55h-4.38l-1.29-6.57h-5.96l-1.29,6.57h-4.38Zm10.81-10.68l-2.15-11.07h-.09l-2.15,11.07h4.38Z"/><path class="cls-2" d="m159.6,42.27V15.84h-5.06v-4.12h14.5v4.12h-5.06v26.43h-4.38Z"/><path class="cls-2" d="m173.12,42.27V11.72h13.04v4.12h-8.67v8.97h7.55v4.12h-7.55v8.97h8.67v4.38h-13.04Z"/><path class="cls-1" d="m189.72,42.27v-3.86l8.24-22.57h-7.81v-4.12h12.57v3.48l-8.41,22.96h8.41v4.12h-13Z"/><polygon class="cls-1" points="198.77 53.92 0 53.92 0 0 198.77 0 198.77 8.61 194.52 8.61 194.52 4.25 4.25 4.25 4.25 49.67 194.52 49.67 194.52 45.64 198.77 45.64 198.77 53.92"/></g></svg>