<?xml version="1.0" encoding="utf-8"?>
<!-- Generator: Adobe Illustrator 23.0.3, SVG Export Plug-In . SVG Version: 6.00 Build 0)  -->
<svg version="1.0" id="Layer_1" xmlns="http://www.w3.org/2000/svg" xmlns:xlink="http://www.w3.org/1999/xlink" x="0px" y="0px"
	 width="222.1px" height="222px" viewBox="0 0 222.1 222" style="enable-background:new 0 0 222.1 222;" xml:space="preserve">
<style type="text/css">
	.st0{fill:#592462;}
</style>
<path class="st0" d="M211.5,156.3l-37.6-37.6l-20.8,14v12.6H76.5v-20.7h48.1l13.8-13.8l-13.8-13.8H76.5V76.5h77.3v12.7l20,14.1
	L208,69.1c8.8-8.4,13.2-17.6,13.2-29.3c0-21.5-17.5-39-39.1-39c-10.4,0-20.4,4.2-27.7,11.6L111,55.8L68.4,13.2l0,0
	C53.6-2.5,28.9-3.3,13.2,11.4s-16.5,39.4-1.8,55.1c0.7,0.8,1.5,1.5,2.2,2.2l42.2,42.2l-42.2,42.2c-16,14.4-17.3,39.1-2.9,55.1
	c7.4,8.2,17.9,12.9,29,12.9c10.9,0,21.2-4.5,28.6-12.4L111,166l41.6,41.6c5.6,5.7,17.8,13.6,29.7,13.6c21.6,0,39.1-17.5,39.1-39.1
	C221.3,172.6,217.8,163.4,211.5,156.3z M182.2,28.6c6.2,0,11.1,5,11.2,11.1c0,6.2-5,11.1-11.1,11.2c-6.2,0-11.1-5-11.2-11.1
	c0,0,0,0,0,0C171.1,33.6,176.1,28.6,182.2,28.6L182.2,28.6z M39.8,50.9c-6.2,0-11.1-5-11.1-11.1s5-11.1,11.1-11.1S51,33.6,51,39.7
	l0,0C51,45.9,46,50.9,39.8,50.9C39.8,50.9,39.8,50.9,39.8,50.9z M39.7,193.3c-6.2,0-11.1-5-11.2-11.1c0-6.2,5-11.1,11.1-11.2
	c6.2,0,11.1,5,11.2,11.1c0,0,0,0,0,0C50.9,188.3,45.9,193.3,39.7,193.3L39.7,193.3z M182.2,193.3c-6.2,0-11.2-5-11.1-11.2
	c0-6.2,5-11.2,11.2-11.1c6.2,0,11.2,5,11.1,11.2c0,0,0,0,0,0C193.4,188.3,188.4,193.3,182.2,193.3
	C182.2,193.3,182.2,193.3,182.2,193.3L182.2,193.3z"/>
</svg>
