<svg xmlns="http://www.w3.org/2000/svg" width="201" height="67" viewBox="0 0 201 67" fill="none"><g clip-path="url(#clip0_1_1668)"><path d="M106.704 23.4882C106.387 23.4633 107.162 21.1141 105.802 19.486C103.62 16.876 98.4161 19.0574 97.2166 16.7626C96.7222 15.817 97.1962 14.6583 97.2392 14.5563C97.8152 13.198 99.3821 12.7581 99.8742 12.6198C102.203 11.9667 105.461 12.9055 107.117 15.4361C109.452 19.0053 107.149 23.5223 106.706 23.4882H106.704ZM94.1553 24.1685C95.8107 26.6991 99.0692 27.6402 101.398 26.9848C101.89 26.8465 103.457 26.4066 104.033 25.0483C104.076 24.9463 104.55 23.7876 104.056 22.842C102.856 20.5472 97.6519 22.7263 95.4705 20.1186C94.11 18.4905 94.8855 16.1413 94.568 16.1164C94.1259 16.0823 91.822 20.5971 94.1576 24.1685H94.1553ZM88.822 21.3975C88.8628 20.7241 88.9467 19.4792 89.5408 18.0234C90.559 15.5313 91.9218 15.2479 92.4275 13.0687C92.5544 12.52 92.9195 10.9418 92.0896 9.5404C91.1508 7.9599 89.042 7.20026 87.3753 7.51546C84.5114 8.05514 83.2642 11.715 82.5227 13.8805C82.2665 14.6311 81.2347 17.8284 81.9671 21.9644C82.5998 25.5313 84.2166 27.9463 84.9853 29.0574C87.4796 32.6606 90.5046 34.4497 91.4864 34.9894C95.0601 36.9554 98.3413 37.2365 99.6996 37.2887C102.6 37.4043 104.933 36.8057 106.369 36.3204C105.913 36.291 105.455 36.2615 104.999 36.2343C104.999 36.2343 102.505 35.9962 100.18 35.2139C93.4207 32.9372 90.7177 28.3658 90.7177 28.3658C89.9036 27.0551 88.6383 24.5404 88.8243 21.3998L88.822 21.3975ZM112.044 16.1322C112.003 16.8057 111.92 18.0506 111.325 19.5064C110.307 21.9984 108.944 22.2819 108.439 24.461C108.312 25.0098 107.947 26.588 108.777 27.9894C109.715 29.5699 111.824 30.3295 113.491 30.0143C116.355 29.4746 117.602 25.8148 118.344 23.6492C118.6 22.8987 119.632 19.7014 118.899 15.5653C118.266 11.9984 116.65 9.58348 115.881 8.47237C113.387 4.8692 110.362 3.08008 109.38 2.5404C105.808 0.57668 102.527 0.2955 101.169 0.241078C98.2687 0.125432 95.9354 0.724072 94.5 1.20933C94.9558 1.23881 95.4138 1.26829 95.8696 1.2955C95.8696 1.2955 98.364 1.5336 100.688 2.31591C107.448 4.59255 110.151 9.16398 110.151 9.16398C110.965 10.4746 112.23 12.9894 112.044 16.13V16.1322Z" fill="white"></path><path d="M36.7359 58.483L31.6248 45.2109H34.813L38.178 54.1134L41.7064 45.2109H43.8651L47.457 54.1134L50.6701 45.2109H53.432L48.3096 58.483H46.2257L42.5726 49.3062L38.8697 58.483H36.7359Z" fill="white"></path><path d="M55.3616 58.483L62.8696 45.2109H65.8446L73.4523 58.483H69.9875L68.3934 55.5828H59.9807L58.4365 58.483H55.3594H55.3616ZM61.3004 53.1837H67.1145L64.2528 47.7846L61.3027 53.1837H61.3004Z" fill="white"></path><path d="M75.0419 58.483L82.5499 45.2109H85.5249L93.1326 58.483H89.6678L88.0737 55.5828H79.661L78.1168 58.483H75.0397H75.0419ZM80.9807 53.1837H86.7948L83.9331 47.7846L80.983 53.1837H80.9807Z" fill="white"></path><path d="M102.607 47.5867V58.4847H99.5181V47.5867H93.4297V45.2148H108.722V47.5867H102.609H102.607Z" fill="white"></path><path d="M113.271 58.483V45.2109H126.856V47.4717H116.359V50.4354H122.486V52.6962H116.359V55.9864H126.981V58.4853H113.271V58.483Z" fill="white"></path><path d="M133.452 58.483V45.2109H144.802C145.856 45.2109 146.62 45.415 147.092 45.8209C147.563 46.2268 147.802 46.8821 147.802 47.7869V50.9003C147.802 51.796 147.566 52.449 147.092 52.8595C146.618 53.2699 145.856 53.474 144.802 53.474H143.069L149.196 58.483H144.765L139.416 53.474H136.491V58.483H133.452ZM143.434 47.5103H136.491V51.2019H143.434C143.969 51.2019 144.337 51.1248 144.532 50.9706C144.729 50.8164 144.827 50.542 144.827 50.1474V48.5533C144.827 48.1679 144.729 47.898 144.532 47.7438C144.334 47.5896 143.969 47.5125 143.434 47.5125V47.5103Z" fill="white"></path><path d="M166.341 47.5368H157.652V50.3872H165.926C167.223 50.3872 168.101 50.6094 168.557 51.0516C169.013 51.496 169.242 52.3192 169.242 53.5255V55.3464C169.242 56.5527 169.013 57.3758 168.557 57.8203C168.101 58.2647 167.223 58.4847 165.926 58.4847H157.727C156.43 58.4847 155.552 58.2625 155.096 57.8203C154.641 57.3758 154.412 56.5527 154.412 55.3464V54.9813L157.135 54.4167V55.9858H166.514V52.9609H158.239C156.949 52.9609 156.081 52.7387 155.627 52.2965C155.176 51.852 154.949 51.0289 154.949 49.8226V48.3532C154.949 47.1468 155.176 46.3237 155.627 45.8792C156.078 45.4348 156.949 45.2148 158.239 45.2148H165.772C167.019 45.2148 167.879 45.428 168.353 45.8543C168.824 46.2806 169.062 47.038 169.062 48.1264V48.4031L166.339 49.0425V47.5368H166.341Z" fill="white"></path></g><defs><clipPath id="clip0_1_1668"><rect width="200" height="78.0045" fill="white" transform="translate(0.5)"></rect></clipPath></defs></svg>